<svg width="24" height="25" viewBox="0 0 24 25" fill="none" xmlns="http://www.w3.org/2000/svg">
<path fill-rule="evenodd" clip-rule="evenodd" d="M12 2.00418C8.13 2.00418 5 5.13418 5 9.00418C5 14.2542 12 22.0042 12 22.0042C12 22.0042 19 14.2542 19 9.00418C19 5.13418 15.87 2.00418 12 2.00418ZM7 9.00418C7 6.24418 9.24 4.00418 12 4.00418C14.76 4.00418 17 6.24418 17 9.00418C17 11.8842 14.12 16.1942 12 18.8842C9.92 16.2142 7 11.8542 7 9.00418ZM9.5 9.00418C9.5 7.62347 10.6193 6.50418 12 6.50418C12.8932 6.50418 13.7185 6.98068 14.1651 7.75418C14.6116 8.52768 14.6116 9.48068 14.1651 10.2542C13.7185 11.0277 12.8932 11.5042 12 11.5042C10.6193 11.5042 9.5 10.3849 9.5 9.00418Z" fill="white"/>
</svg>
