<svg width="23" height="22" viewBox="0 0 23 22" fill="none" xmlns="http://www.w3.org/2000/svg">
<path d="M22.1043 21.4375C20.7918 21.4063 19.5106 21.4063 18.1981 21.4375C17.9168 21.4375 17.8543 21.375 17.8543 21.0938C17.8543 18.7813 17.8543 16.4375 17.8543 14.125C17.8543 13.5938 17.8231 13.0625 17.6668 12.5625C17.1981 10.9375 15.3231 10.3438 13.9793 11.4375C13.2606 12 12.9793 12.7813 12.9793 13.7188C12.9793 15.9063 12.9793 18.0938 12.9793 20.2813C12.9793 20.5625 12.9481 20.8438 12.9793 21.1563C13.0106 21.4063 12.8856 21.4688 12.6668 21.4375C11.3231 21.4375 10.0106 21.4375 8.66681 21.4375C8.41681 21.4375 8.35431 21.375 8.35431 21.125C8.38556 19.1563 8.38556 17.1875 8.38556 15.1875C8.38556 12.75 8.38556 10.3125 8.35431 7.90626C8.35431 7.62501 8.41681 7.56251 8.66681 7.56251C10.0106 7.56251 11.3231 7.56251 12.6668 7.56251C12.9168 7.56251 12.9793 7.62501 12.9793 7.87501C12.9793 8.37501 12.9793 8.87501 12.9793 9.46876C13.0731 9.37501 13.1043 9.34376 13.1356 9.31251C14.3543 7.53126 16.0731 7.03126 18.1043 7.34376C20.4481 7.71876 21.9481 9.34376 22.3231 11.8438C22.4168 12.4375 22.4481 13.0313 22.4481 13.625C22.4481 16.125 22.4481 18.5938 22.4481 21.0938C22.4481 21.3438 22.3856 21.4375 22.1043 21.4375Z" fill="white"/>
<path d="M5.85431 14.5C5.85431 16.6875 5.85431 18.875 5.85431 21.0625C5.85431 21.3438 5.79181 21.4375 5.51056 21.4375C4.19806 21.4063 2.88556 21.4375 1.57306 21.4375C1.32306 21.4375 1.26056 21.375 1.26056 21.125C1.26056 16.7188 1.26056 12.2813 1.26056 7.87502C1.26056 7.65627 1.32306 7.56252 1.57306 7.56252C2.91681 7.56252 4.26056 7.56252 5.60431 7.56252C5.88556 7.56252 5.91681 7.65627 5.91681 7.90627C5.85431 10.0938 5.85431 12.2813 5.85431 14.5Z" fill="white"/>
<path d="M6.07297 3.93752C5.76047 5.18752 4.47922 5.90627 3.01047 5.65627C1.44797 5.40627 0.572973 3.87502 1.13547 2.37502C1.51047 1.43752 2.41672 0.875017 3.57297 0.906267C5.32297 0.875017 6.47922 2.28127 6.07297 3.93752Z" fill="white"/>
</svg>
