<svg width="18" height="28" viewBox="0 0 18 28" fill="none" xmlns="http://www.w3.org/2000/svg">
<path d="M7.15427 25.2835C7.07224 25.3596 7.00779 25.4768 7.00779 25.5471C7.00779 25.6116 7.07224 25.7346 7.15427 25.8108L7.29489 25.9573H8.99997H10.7051L10.8457 25.8108C10.9277 25.7346 10.9922 25.6116 10.9922 25.5471C10.9922 25.4827 10.9277 25.3596 10.8457 25.2835L10.7051 25.137H8.99997H7.29489L7.15427 25.2835Z" fill="white"/>
<path d="M2.06833 0.152617C1.87497 0.211211 1.68161 0.340117 1.47068 0.545195C0.925753 1.0784 0.972629 -0.210664 0.972629 14.0042C0.972629 28.0022 0.937472 26.9065 1.38864 27.3929C1.52341 27.5335 1.75193 27.7093 1.89841 27.7854L2.1738 27.9202H8.99998H15.8262L16.1015 27.7854C16.248 27.7093 16.4765 27.5335 16.6113 27.3929C17.0625 26.9065 17.0273 28.0022 17.0273 14.0042C17.0273 -0.210664 17.0742 1.0784 16.5293 0.545195C15.9961 0.0237102 16.5234 0.058867 8.97654 0.0647264C3.29294 0.0647264 2.30857 0.0823045 2.06833 0.152617ZM5.36716 1.74051C5.59568 2.21512 5.83591 2.66629 5.90623 2.7366L6.02927 2.87137H8.99998H11.9707L12.0937 2.7366C12.164 2.66629 12.4043 2.21512 12.6328 1.74051L13.0429 0.879181H14.2734C15.6094 0.879181 15.7617 0.908478 16.0312 1.20145L16.1777 1.35965V14.0042V26.6487L16.0312 26.8069C15.7207 27.1468 16.0547 27.1292 8.99998 27.1292C1.94529 27.1292 2.27927 27.1468 1.96872 26.8069L1.82224 26.6487V14.0042V1.35965L1.96872 1.20145C2.23825 0.908478 2.36716 0.88504 3.71482 0.879181H4.95701L5.36716 1.74051ZM12.1054 0.902617C12.1054 0.914336 11.9824 1.17801 11.8359 1.48855L11.5605 2.05106H8.99998H6.43943L6.16404 1.48855C6.01755 1.17801 5.89451 0.914336 5.89451 0.902617C5.89451 0.890899 7.2949 0.879181 8.99998 0.879181C10.7109 0.879181 12.1054 0.890899 12.1054 0.902617Z" fill="white"/>
</svg>
