<svg width="18" height="18" viewBox="0 0 18 18" fill="none" xmlns="http://www.w3.org/2000/svg">
<path d="M9.00002 0.670853C7.72176 0.670796 6.46061 0.964803 5.31416 1.53013C4.1677 2.09545 3.16666 2.91694 2.38848 3.93104C1.6103 4.94514 1.07584 6.12466 0.826457 7.37837C0.57707 8.63207 0.619437 9.92633 0.95028 11.161C1.28112 12.3957 1.89157 13.5378 2.73441 14.4988C3.57724 15.4599 4.62986 16.2141 5.81083 16.7033C6.99181 17.1924 8.26948 17.4033 9.545 17.3197C10.8205 17.236 12.0597 16.86 13.1667 16.2209C13.2663 16.1688 13.3543 16.0971 13.4255 16.0101C13.4966 15.9231 13.5494 15.8226 13.5808 15.7146C13.6121 15.6067 13.6212 15.4935 13.6077 15.382C13.5941 15.2704 13.5581 15.1627 13.5019 15.0654C13.4456 14.9681 13.3703 14.8832 13.2804 14.8158C13.1905 14.7483 13.0878 14.6998 12.9787 14.673C12.8695 14.6463 12.7561 14.6419 12.6452 14.6602C12.5343 14.6784 12.4282 14.7189 12.3334 14.7792C11.0625 15.5129 9.58498 15.8068 8.13003 15.6153C6.67508 15.4238 5.32398 14.7576 4.28624 13.72C3.2485 12.6824 2.58213 11.3313 2.39046 9.87642C2.19879 8.42149 2.49254 6.94397 3.22614 5.673C3.95975 4.40203 5.09222 3.40862 6.44793 2.84684C7.80365 2.28507 9.30684 2.18631 10.7244 2.56589C12.142 2.94546 13.3947 3.78217 14.2882 4.94624C15.1818 6.1103 15.6664 7.53669 15.6667 9.00419V9.62919C15.6667 10.016 15.513 10.3869 15.2396 10.6604C14.9661 10.9339 14.5951 11.0875 14.2084 11.0875C13.8216 11.0875 13.4506 10.9339 13.1772 10.6604C12.9037 10.3869 12.75 10.016 12.75 9.62919V6.08752C12.75 5.86651 12.6622 5.65454 12.5059 5.49826C12.3497 5.34198 12.1377 5.25419 11.9167 5.25419C11.7229 5.24987 11.5337 5.31325 11.3816 5.43341C11.2295 5.55357 11.124 5.72299 11.0834 5.91252C10.4708 5.48884 9.74482 5.25943 9.00002 5.25419C8.37266 5.24668 7.75344 5.39671 7.19908 5.69052C6.64472 5.98433 6.17294 6.41253 5.82694 6.93591C5.48095 7.45929 5.2718 8.06112 5.21865 8.68627C5.16551 9.31142 5.27006 9.93991 5.52274 10.5142C5.77543 11.0885 6.16815 11.5902 6.66496 11.9733C7.16177 12.3565 7.74678 12.6089 8.3664 12.7074C8.98603 12.8059 9.62047 12.7474 10.2116 12.5372C10.8028 12.327 11.3317 11.9718 11.75 11.5042C12.146 12.017 12.6919 12.3936 13.3118 12.5817C13.9317 12.7698 14.5949 12.7601 15.209 12.5539C15.8232 12.3476 16.3578 11.9551 16.7385 11.431C17.1192 10.9068 17.3272 10.277 17.3334 9.62919V9.00419C17.3334 7.90984 17.1178 6.8262 16.699 5.81516C16.2802 4.80411 15.6664 3.88545 14.8926 3.11163C14.1188 2.33781 13.2001 1.72398 12.189 1.30519C11.178 0.886401 10.0944 0.670853 9.00002 0.670853V0.670853ZM9.00002 11.0875C8.58798 11.0875 8.18519 10.9653 7.84258 10.7364C7.49998 10.5075 7.23295 10.1821 7.07527 9.80144C6.91759 9.42077 6.87633 9.00188 6.95672 8.59775C7.0371 8.19362 7.23552 7.82241 7.52688 7.53105C7.81824 7.23969 8.18946 7.04127 8.59358 6.96088C8.99771 6.8805 9.4166 6.92175 9.79728 7.07944C10.178 7.23712 10.5033 7.50415 10.7322 7.84675C10.9612 8.18935 11.0834 8.59214 11.0834 9.00419C11.0834 9.55672 10.8639 10.0866 10.4732 10.4773C10.0825 10.868 9.55256 11.0875 9.00002 11.0875V11.0875Z" fill="white"/>
</svg>
