<svg width="26" height="28" viewBox="0 0 26 28" fill="none" xmlns="http://www.w3.org/2000/svg">
<path d="M8.88107 27.0905C8.88107 26.6581 8.86543 25.5138 8.85649 23.9951C3.79324 25.0947 2.72494 21.5546 2.72494 21.5546C1.8969 19.4515 0.703449 18.8917 0.703449 18.8917C-0.949286 17.763 0.828603 17.7854 0.828603 17.7854C2.65566 17.9139 3.61668 19.6616 3.61668 19.6616C5.24036 22.443 7.87758 21.6395 8.91459 21.1735C9.07998 19.998 9.55043 19.1956 10.0701 18.7408C6.02817 18.2804 1.77845 16.7193 1.77845 9.7441C1.77845 7.75612 2.48805 6.13244 3.65245 4.85965C3.46471 4.39925 2.84004 2.54869 3.83124 0.0422113C3.83124 0.0422113 5.35881 -0.447248 8.83637 1.90726C10.288 1.50385 11.8457 1.30271 13.3934 1.29489C14.94 1.30271 16.4966 1.50385 17.9504 1.90726C21.4258 -0.447248 22.9511 0.0422113 22.9511 0.0422113C23.9445 2.54869 23.3199 4.39925 23.1333 4.85965C24.2999 6.13244 25.0039 7.75612 25.0039 9.7441C25.0039 16.7372 20.7475 18.2759 16.6933 18.7263C17.3459 19.2884 17.9281 20.3991 17.9281 22.0977C17.9281 24.5304 17.9057 26.4938 17.9057 27.0905C17.9057 27.5025 18.1488 27.9712 18.7798 27.9987H7.95312C8.62691 27.9962 8.88107 27.513 8.88107 27.0905Z" fill="white"/>
</svg>
